<svg width="1069" height="1080" viewBox="0 0 1069 1080" fill="none" xmlns="http://www.w3.org/2000/svg">
<path d="M820.205 847.062C1044.54 787.979 996.949 604.028 949.649 446.639C898.758 277.302 814.106 356.192 581.354 183.273C348.601 10.3542 143.089 387.017 127.663 451.099C106.872 537.472 208.488 849.393 406.601 775.485C604.714 701.577 539.787 920.915 820.205 847.062Z" fill="#AADFB7"/>
<g clip-path="url(#clip0_6_93)">
<path d="M798.092 779.257C786.954 769.845 780.188 754.977 781.963 740.503C783.737 726.029 794.726 712.723 808.981 709.649C823.236 706.576 839.485 715.084 843.815 729.009C846.198 702.162 848.943 674.191 863.217 651.329C876.141 630.628 898.525 615.815 922.785 613.165C947.045 610.515 972.588 620.524 987.718 639.672C1002.85 658.82 1006.55 686.658 995.956 708.641C988.15 724.836 973.768 736.888 958.699 746.693C910.007 778.11 851.608 790.886 794.246 782.67L798.092 779.257Z" fill="#7DD592"/>
<path d="M963.728 621.079C943.71 637.383 925.346 655.619 908.902 675.521C883.166 706.562 862.34 741.364 847.15 778.715C846.038 781.44 850.462 782.626 851.562 779.931C876.416 719.228 916.093 665.724 966.963 624.314C969.248 622.454 965.993 619.234 963.728 621.079Z" fill="#DFF8E5"/>
<path d="M412.067 776.699C427.366 763.772 436.658 743.351 434.221 723.471C431.784 703.591 416.69 685.315 397.112 681.094C377.533 676.872 355.214 688.558 349.267 707.684C345.995 670.81 342.223 632.392 322.619 600.991C304.868 572.558 274.122 552.213 240.801 548.573C207.48 544.933 172.397 558.68 151.616 584.98C130.835 611.28 125.747 649.515 140.301 679.709C151.023 701.952 170.777 718.506 191.473 731.973C257.503 774.939 339.412 792.858 417.351 781.388" fill="#7DD592"/>
<path d="M184.567 559.442C212.061 581.836 237.284 606.883 259.871 634.219C282.461 661.527 302.349 690.961 319.257 722.109C328.707 739.582 337.196 757.557 344.687 775.956C346.214 779.698 340.137 781.327 338.627 777.626C325.359 745.191 308.944 714.133 289.618 684.899C270.385 655.772 248.373 628.578 223.889 603.701C210.041 589.637 195.43 576.346 180.123 563.886C176.985 561.331 181.455 556.908 184.567 559.442Z" fill="#DFF8E5"/>
<path d="M756.5 784H391.5V409.5C391.5 329.822 456.322 265 536 265H612C691.678 265 756.5 329.822 756.5 409.5V784Z" fill="#7DD592"/>
<path d="M680.5 784H391.5V409.5C391.42 378.969 401.088 349.21 419.096 324.556C419.76 323.651 420.422 322.758 421.104 321.875C429.815 310.451 440.18 300.39 451.859 292.024C452.518 291.544 453.181 291.072 453.853 290.601C463.625 283.838 474.196 278.31 485.325 274.142C485.986 273.891 486.659 273.64 487.332 273.399C497.397 269.807 507.83 267.347 518.44 266.063C519.098 265.974 519.773 265.903 520.448 265.833C530.787 264.728 541.215 264.728 551.554 265.833C552.227 265.903 552.902 265.974 553.568 266.064C564.175 267.348 574.606 269.808 584.668 273.399C585.341 273.64 586.014 273.891 586.677 274.142C597.669 278.258 608.115 283.703 617.783 290.358C618.455 290.819 619.127 291.291 619.79 291.763C626.336 296.435 632.485 301.641 638.173 307.327C642.735 311.887 646.986 316.748 650.898 321.878C651.578 322.758 652.24 323.651 652.903 324.554C670.911 349.209 680.58 378.969 680.5 409.5V784Z" fill="#242E38"/>
<path d="M657 616.5C665.837 616.5 673 609.337 673 600.5C673 591.663 665.837 584.5 657 584.5C648.163 584.5 641 591.663 641 600.5C641 609.337 648.163 616.5 657 616.5Z" fill="#396A44"/>
<path d="M726.599 772.783H714.339L708.506 725.495L726.601 725.496L726.599 772.783Z" fill="#FFB8B8"/>
<path d="M705.582 769.28H729.226V784.167H690.695C690.695 782.212 691.08 780.276 691.828 778.47C692.576 776.664 693.673 775.022 695.055 773.64C696.437 772.258 698.079 771.161 699.885 770.413C701.691 769.665 703.627 769.28 705.582 769.28Z" fill="#242E38"/>
<path d="M787.599 772.783H775.339L769.506 725.495L787.601 725.496L787.599 772.783Z" fill="#FFB8B8"/>
<path d="M766.582 769.28H790.226V784.167H751.695C751.695 782.212 752.08 780.276 752.828 778.47C753.576 776.664 754.673 775.022 756.055 773.64C757.437 772.258 759.079 771.161 760.885 770.413C762.691 769.665 764.627 769.28 766.582 769.28Z" fill="#242E38"/>
<path d="M665.098 603.67C664.216 602.37 663.629 600.893 663.38 599.343C663.131 597.792 663.224 596.206 663.654 594.695C664.084 593.185 664.84 591.787 665.869 590.6C666.898 589.413 668.174 588.467 669.608 587.827L711.284 472.96L731.791 484.151L684.206 593.922C685.122 596.403 685.096 599.133 684.133 601.595C683.17 604.058 681.337 606.082 678.982 607.283C676.626 608.485 673.912 608.781 671.353 608.115C668.794 607.449 666.568 605.867 665.098 603.67Z" fill="#FFB8B8"/>
<path d="M781.336 625.254C779.974 624.472 778.799 623.402 777.895 622.118C776.991 620.834 776.38 619.367 776.104 617.821C775.828 616.275 775.895 614.687 776.299 613.169C776.703 611.652 777.435 610.241 778.443 609.037L765.533 487.528L788.87 488.594L794.236 608.114C796.147 609.942 797.32 612.408 797.535 615.043C797.749 617.678 796.989 620.301 795.399 622.414C793.809 624.526 791.499 625.982 788.907 626.506C786.316 627.029 783.622 626.584 781.336 625.254Z" fill="#FFB8B8"/>
<path d="M744.106 451.684C757.67 451.684 768.667 440.687 768.667 427.123C768.667 413.558 757.67 402.562 744.106 402.562C730.541 402.562 719.545 413.558 719.545 427.123C719.545 440.687 730.541 451.684 744.106 451.684Z" fill="#FFB8B8"/>
<path d="M781.18 597.619H707.133L707.222 597.043C707.355 596.181 720.419 510.604 710.784 482.607C709.817 479.855 709.902 476.844 711.022 474.151C712.143 471.459 714.22 469.276 716.853 468.023C730.625 461.538 757.061 453.552 779.373 472.932C782.657 475.831 785.22 479.454 786.862 483.515C788.504 487.575 789.179 491.962 788.833 496.328L781.18 597.619Z" fill="#396A44"/>
<path d="M721.354 523.25L688.018 516.487L703.644 479.457C704.579 475.871 706.899 472.802 710.094 470.923C713.289 469.044 717.098 468.51 720.687 469.436C724.276 470.363 727.351 472.675 729.237 475.865C731.124 479.056 731.667 482.864 730.75 486.455L721.354 523.25Z" fill="#396A44"/>
<path d="M764.05 535.808L762.046 489.867C760.526 481.23 765.47 473.066 773.074 471.732C780.679 470.402 788.105 476.392 789.632 485.092L797.165 528.019L764.05 535.808Z" fill="#396A44"/>
<path d="M778.716 592.119C790.631 637.495 791.93 695.188 788.716 758.119L772.716 756.119L743.716 636.119L727.716 758.119L709.716 757.119C704.339 691.089 699.103 634.403 707.716 597.119L778.716 592.119Z" fill="#242E38"/>
<path d="M760.289 446.104C755.707 450.985 747.198 448.365 746.601 441.697C746.554 441.179 746.557 440.658 746.611 440.141C746.919 437.188 748.625 434.506 748.217 431.388C748.124 430.611 747.835 429.872 747.377 429.239C743.725 424.349 735.154 431.425 731.708 426.999C729.595 424.285 732.079 420.012 730.458 416.979C728.318 412.975 721.979 414.95 718.004 412.758C713.581 410.318 713.846 403.532 716.757 399.405C720.308 394.371 726.533 391.685 732.68 391.298C738.828 390.911 744.933 392.573 750.673 394.81C757.194 397.351 763.66 400.863 767.673 406.597C772.554 413.57 773.023 422.945 770.583 431.099C769.098 436.059 764.031 442.118 760.289 446.104Z" fill="#242E38"/>
<path d="M971.982 784.643H233.688C233.372 784.643 233.07 784.517 232.848 784.293C232.625 784.07 232.5 783.768 232.5 783.453C232.5 783.138 232.625 782.835 232.848 782.612C233.07 782.389 233.372 782.263 233.688 782.262H971.982C972.297 782.263 972.599 782.389 972.821 782.612C973.044 782.835 973.169 783.138 973.169 783.453C973.169 783.768 973.044 784.07 972.821 784.293C972.599 784.517 972.297 784.643 971.982 784.643Z" fill="#3F3D56"/>
<path d="M601 675.5H471C469.288 675.509 467.642 674.839 466.424 673.636C465.205 672.434 464.513 670.797 464.5 669.085V378.915C464.513 377.203 465.205 375.566 466.424 374.364C467.642 373.161 469.288 372.491 471 372.5H601C602.712 372.491 604.358 373.161 605.576 374.364C606.795 375.566 607.487 377.203 607.5 378.915V669.085C607.487 670.797 606.795 672.434 605.576 673.636C604.358 674.839 602.712 675.509 601 675.5Z" fill="#DFF8E5"/>
<path d="M607.5 466.39H464.5V468.39H607.5V466.39Z" fill="#242E38"/>
<path d="M608 580.5H465V582.5H608V580.5Z" fill="#242E38"/>
<path d="M511.5 372.5H509.5V676.5H511.5V372.5Z" fill="#242E38"/>
<path d="M561.5 372.5H559.5V676.5H561.5V372.5Z" fill="#242E38"/>
</g>
<defs>
<clipPath id="clip0_6_93">
<rect width="870" height="520.139" fill="white" transform="translate(132 265)"/>
</clipPath>
</defs>
</svg>
